<svg width="26" height="26" viewBox="0 0 26 26" fill="none" xmlns="http://www.w3.org/2000/svg">
<path d="M5.70216 1.05248C6.52696 0.548667 7.60401 0.808877 8.10783 1.63368L13.5812 10.5943L22.5418 5.12086C23.3666 4.61705 24.4437 4.87726 24.9475 5.70206C25.4513 6.52686 25.1911 7.60391 24.3663 8.10772L15.4057 13.5811L20.8791 22.5417C21.3829 23.3665 21.1227 24.4435 20.2979 24.9474C19.4731 25.4512 18.396 25.191 17.8922 24.3662L12.4188 15.4056L3.45826 20.879C2.63346 21.3828 1.55641 21.1226 1.0526 20.2978C0.548785 19.473 0.808995 18.3959 1.63379 17.8921L10.5944 12.4187L5.12097 3.45814C4.61716 2.63334 4.87737 1.55629 5.70216 1.05248Z" fill="#E7E7E7"/>
</svg>
