<svg width="78" height="72" viewBox="0 0 78 72" fill="none" xmlns="http://www.w3.org/2000/svg">
<path d="M23.2716 67.2448L21.708 66.3768L20.1421 65.0142L18.5516 63.2408L16.2686 56.3421L15.389 53.5917L14.2136 52.7828L11.554 50.1391L9.13089 45.9422L8.2731 41.2666L8.75225 37.8025L10.5437 35.139L9.53151 33.3859L9.66784 31.5363L10.6033 29.7213L16.8189 26.1326L18.2533 25.3045L19.921 25.6167L21.5378 26.454L39.6617 16.1319L39.596 15.0365L39.5669 13.6366L40.8846 12.2383L44.3909 10.214L47.5253 8.40431L49.3951 7.96228L51.8192 8.97107L53.1381 11.2555L54.5993 11.3326L57.8389 12.6498L59.7767 13.7977L62.0929 16.2146L63.8105 19.1896L64.792 20.8896L65.2669 23.3071L71.9194 30.658L73.7553 32.8564L74.6492 35.3862L74.7297 38.1022L73.48 41.0904L71.815 43.1142L68.6275 44.9545L65.5643 45.6605L63.1282 45.367L61.1702 44.7974L58.8583 43.3697L56.8548 41.1264L54.0867 38.0495L52.1474 38.2484L49.9402 38.106L48.25 37.8777L46.4125 37.0261L35.5218 43.3138L35.4035 44.0904L35.1281 45.4536L35.0711 46.3365L34.0519 48.1291L33.237 49.6621L35.3359 56.242L35.733 58.2794L35.4702 60.7687L34.6575 62.7962L33.532 64.6502L31.3867 66.4554L29.6867 67.4369L27.7414 67.9934L25.7856 67.9184L23.2716 67.2448Z" fill="#E7E7E7" fill-opacity="0.3"></path>
<rect x="15.5491" y="36.5701" width="5.52093" height="14.9679" rx="1.34956" transform="rotate(-30 15.5491 36.5701)" fill="#B4B4B4" fill-opacity="0.3"></rect>
<rect x="26.7827" y="35.5385" width="5.52093" height="14.9679" rx="1.34956" transform="rotate(60 26.7827 35.5385)" fill="#B4B4B4" fill-opacity="0.3"></rect>
<rect x="45.5072" y="18.282" width="5.15287" height="5.15287" rx="2.57644" transform="rotate(-30 45.5072 18.282)" fill="#B4B4B4" fill-opacity="0.3"></rect>
<rect x="43.654" y="25.8685" width="5.15287" height="5.15287" rx="2.57644" transform="rotate(-30 43.654 25.8685)" fill="#B4B4B4" fill-opacity="0.3"></rect>
<rect x="53.0041" y="20.4703" width="5.15287" height="5.15287" rx="2.57644" transform="rotate(-30 53.0041 20.4703)" fill="#B4B4B4" fill-opacity="0.3"></rect>
<rect x="51.0895" y="27.9507" width="5.15287" height="5.15287" rx="2.57644" transform="rotate(-30 51.0895 27.9507)" fill="#B4B4B4" fill-opacity="0.3"></rect>
<rect x="26.693" y="17.1027" width="2.82181" height="7.36125" rx="0.981499" transform="rotate(-30 26.693 17.1027)" fill="#E7E7E7" fill-opacity="0.3"></rect>
</svg>
