<svg width="78" height="72" viewBox="0 0 78 72" fill="none" xmlns="http://www.w3.org/2000/svg">
<path d="M22.9511 67.4603L21.3875 66.5922L19.8216 65.2296L18.2311 63.4562L15.9481 56.5576L15.0685 53.8071L13.8931 52.9982L11.2335 50.3546L8.81039 46.1577L7.9526 41.4821L8.43175 38.0179L10.2232 35.3545L9.21101 33.6013L9.34735 31.7518L10.2828 29.9367L16.4984 26.3481L17.9328 25.52L19.6005 25.8321L21.2173 26.6695L39.3412 16.3473L39.2755 15.2519L39.2464 13.852L40.5641 12.4537L44.0704 10.4294L47.2048 8.61977L49.0746 8.17774L51.4987 9.18653L52.8176 11.4709L54.2788 11.5481L57.5184 12.8652L59.4562 14.0131L61.7724 16.43L63.49 19.405L64.4715 21.1051L64.9464 23.5225L71.5989 30.8735L73.4348 33.0719L74.3287 35.6016L74.4092 38.3176L73.1595 41.3058L71.4945 43.3296L68.307 45.1699L65.2438 45.876L62.8077 45.5825L60.8497 45.0129L58.5378 43.5851L56.5343 41.3418L53.7662 38.265L51.8269 38.4638L49.6197 38.3215L47.9295 38.0931L46.092 37.2415L35.2013 43.5293L35.083 44.3059L34.8076 45.6691L34.7506 46.552L33.7314 48.3446L32.9165 49.8776L35.0154 56.4575L35.4125 58.4949L35.1497 60.9841L34.337 63.0117L33.2115 64.8657L31.0662 66.6709L29.3662 67.6524L27.4209 68.2089L25.4651 68.1339L22.9511 67.4603Z" fill="#E7E7E7"></path>
<rect x="15.2286" y="36.7855" width="5.52093" height="14.9679" rx="1.34956" transform="rotate(-30 15.2286 36.7855)" fill="#B4B4B4"></rect>
<rect x="26.4622" y="35.7539" width="5.52093" height="14.9679" rx="1.34956" transform="rotate(60 26.4622 35.7539)" fill="#B4B4B4"></rect>
<rect x="45.1868" y="18.4974" width="5.15287" height="5.15287" rx="2.57644" transform="rotate(-30 45.1868 18.4974)" fill="#B4B4B4"></rect>
<rect x="43.3335" y="26.084" width="5.15287" height="5.15287" rx="2.57644" transform="rotate(-30 43.3335 26.084)" fill="#B4B4B4"></rect>
<rect x="52.6836" y="20.6858" width="5.15287" height="5.15287" rx="2.57644" transform="rotate(-30 52.6836 20.6858)" fill="#B4B4B4"></rect>
<rect x="50.769" y="28.1661" width="5.15287" height="5.15287" rx="2.57644" transform="rotate(-30 50.769 28.1661)" fill="#B4B4B4"></rect>
<rect x="26.3725" y="17.3181" width="2.82181" height="7.36125" rx="0.981499" transform="rotate(-30 26.3725 17.3181)" fill="#E7E7E7"></rect>
</svg>
